<mxfile host="app.diagrams.net" modified="2022-08-09T15:55:07.199Z" agent="5.0 (Windows NT 10.0; Win64; x64) AppleWebKit/537.36 (KHTML, like Gecko) Chrome/104.0.5112.81 Safari/537.36 Edg/104.0.1293.47" etag="uzXSUd8Oodp1VlenldaR" version="20.2.3" type="github">
  <diagram id="AmEnTjEuFJOwnKgjbxLm" name="PlayerManager">
    <mxGraphModel dx="1831" dy="1654" grid="1" gridSize="10" guides="1" tooltips="1" connect="1" arrows="1" fold="1" page="1" pageScale="1" pageWidth="850" pageHeight="1100" math="0" shadow="0">
      <root>
        <mxCell id="0" />
        <mxCell id="1" parent="0" />
        <mxCell id="JcnzHYC7QVYUQ1IUo25t-47" value="PlayerData(ScriptableObject)" style="swimlane;fontStyle=1;childLayout=stackLayout;horizontal=1;startSize=26;fillColor=none;horizontalStack=0;resizeParent=1;resizeParentMax=0;resizeLast=0;collapsible=1;marginBottom=0;" parent="1" vertex="1">
          <mxGeometry x="770" y="115" width="230" height="170" as="geometry" />
        </mxCell>
        <mxCell id="JcnzHYC7QVYUQ1IUo25t-48" value="+m_Health: float&#xa;+m_MoveSpeed: float&#xa;" style="text;strokeColor=none;fillColor=none;align=left;verticalAlign=top;spacingLeft=4;spacingRight=4;overflow=hidden;rotatable=0;points=[[0,0.5],[1,0.5]];portConstraint=eastwest;" parent="JcnzHYC7QVYUQ1IUo25t-47" vertex="1">
          <mxGeometry y="26" width="230" height="144" as="geometry" />
        </mxCell>
        <mxCell id="JcnzHYC7QVYUQ1IUo25t-1" value="PlayerManager(Mono)" style="swimlane;fontStyle=1;align=center;verticalAlign=top;childLayout=stackLayout;horizontal=1;startSize=26;horizontalStack=0;resizeParent=1;resizeParentMax=0;resizeLast=0;collapsible=1;marginBottom=0;" parent="1" vertex="1">
          <mxGeometry x="380" y="20" width="270" height="300" as="geometry" />
        </mxCell>
        <mxCell id="JcnzHYC7QVYUQ1IUo25t-2" value="+m_CharacterController: CharacterController&#xa;+m_Animator: Animator&#xa;+m_PlayerData: PlayerData" style="text;strokeColor=none;fillColor=none;align=left;verticalAlign=top;spacingLeft=4;spacingRight=4;overflow=hidden;rotatable=0;points=[[0,0.5],[1,0.5]];portConstraint=eastwest;" parent="JcnzHYC7QVYUQ1IUo25t-1" vertex="1">
          <mxGeometry y="26" width="270" height="74" as="geometry" />
        </mxCell>
        <mxCell id="JcnzHYC7QVYUQ1IUo25t-3" value="" style="line;strokeWidth=1;fillColor=none;align=left;verticalAlign=middle;spacingTop=-1;spacingLeft=3;spacingRight=3;rotatable=0;labelPosition=right;points=[];portConstraint=eastwest;" parent="JcnzHYC7QVYUQ1IUo25t-1" vertex="1">
          <mxGeometry y="100" width="270" height="8" as="geometry" />
        </mxCell>
        <mxCell id="JcnzHYC7QVYUQ1IUo25t-4" value="# virtual OnAwake():void&#xa;# virtual OnStart():void&#xa;# virtual OnEnable():void&#xa;# virtual OnDisable():void&#xa;# virtual OnUpdate():void&#xa;# virtual OnOnTriggerEnter():void&#xa;#virtual OnOnTriggerExit(): void&#xa;- InitiliazeFields():void" style="text;strokeColor=none;fillColor=none;align=left;verticalAlign=top;spacingLeft=4;spacingRight=4;overflow=hidden;rotatable=0;points=[[0,0.5],[1,0.5]];portConstraint=eastwest;" parent="JcnzHYC7QVYUQ1IUo25t-1" vertex="1">
          <mxGeometry y="108" width="270" height="192" as="geometry" />
        </mxCell>
        <mxCell id="JcnzHYC7QVYUQ1IUo25t-13" value="WalkState" style="swimlane;fontStyle=1;align=center;verticalAlign=top;childLayout=stackLayout;horizontal=1;startSize=26;horizontalStack=0;resizeParent=1;resizeParentMax=0;resizeLast=0;collapsible=1;marginBottom=0;" parent="1" vertex="1">
          <mxGeometry x="-50" y="930" width="300" height="214" as="geometry" />
        </mxCell>
        <mxCell id="JcnzHYC7QVYUQ1IUo25t-14" value="-m_SubStates: List&lt;IMovementStateBase&gt;&#xa;-m_CurrentSubState: IMovementStateBase&#xa;-m_movementManager: PlayerMovementManager&#xa;-m_MoveInput: Vector2&#xa;-m_Controller: CharacterController&#xa;-m_Animator: Animator" style="text;strokeColor=none;fillColor=none;align=left;verticalAlign=top;spacingLeft=4;spacingRight=4;overflow=hidden;rotatable=0;points=[[0,0.5],[1,0.5]];portConstraint=eastwest;" parent="JcnzHYC7QVYUQ1IUo25t-13" vertex="1">
          <mxGeometry y="26" width="300" height="154" as="geometry" />
        </mxCell>
        <mxCell id="JcnzHYC7QVYUQ1IUo25t-15" value="" style="line;strokeWidth=1;fillColor=none;align=left;verticalAlign=middle;spacingTop=-1;spacingLeft=3;spacingRight=3;rotatable=0;labelPosition=right;points=[];portConstraint=eastwest;" parent="JcnzHYC7QVYUQ1IUo25t-13" vertex="1">
          <mxGeometry y="180" width="300" height="8" as="geometry" />
        </mxCell>
        <mxCell id="JcnzHYC7QVYUQ1IUo25t-16" value="+Move():void" style="text;strokeColor=none;fillColor=none;align=left;verticalAlign=top;spacingLeft=4;spacingRight=4;overflow=hidden;rotatable=0;points=[[0,0.5],[1,0.5]];portConstraint=eastwest;" parent="JcnzHYC7QVYUQ1IUo25t-13" vertex="1">
          <mxGeometry y="188" width="300" height="26" as="geometry" />
        </mxCell>
        <mxCell id="JcnzHYC7QVYUQ1IUo25t-17" value="AttackState" style="swimlane;fontStyle=1;align=center;verticalAlign=top;childLayout=stackLayout;horizontal=1;startSize=26;horizontalStack=0;resizeParent=1;resizeParentMax=0;resizeLast=0;collapsible=1;marginBottom=0;" parent="1" vertex="1">
          <mxGeometry x="-550" y="1260" width="240" height="90" as="geometry" />
        </mxCell>
        <mxCell id="JcnzHYC7QVYUQ1IUo25t-18" value="+Constructor(PlayerMovementManager)" style="text;strokeColor=none;fillColor=none;align=left;verticalAlign=top;spacingLeft=4;spacingRight=4;overflow=hidden;rotatable=0;points=[[0,0.5],[1,0.5]];portConstraint=eastwest;" parent="JcnzHYC7QVYUQ1IUo25t-17" vertex="1">
          <mxGeometry y="26" width="240" height="30" as="geometry" />
        </mxCell>
        <mxCell id="JcnzHYC7QVYUQ1IUo25t-19" value="" style="line;strokeWidth=1;fillColor=none;align=left;verticalAlign=middle;spacingTop=-1;spacingLeft=3;spacingRight=3;rotatable=0;labelPosition=right;points=[];portConstraint=eastwest;" parent="JcnzHYC7QVYUQ1IUo25t-17" vertex="1">
          <mxGeometry y="56" width="240" height="8" as="geometry" />
        </mxCell>
        <mxCell id="JcnzHYC7QVYUQ1IUo25t-20" value="+ method(type): type" style="text;strokeColor=none;fillColor=none;align=left;verticalAlign=top;spacingLeft=4;spacingRight=4;overflow=hidden;rotatable=0;points=[[0,0.5],[1,0.5]];portConstraint=eastwest;" parent="JcnzHYC7QVYUQ1IUo25t-17" vertex="1">
          <mxGeometry y="64" width="240" height="26" as="geometry" />
        </mxCell>
        <mxCell id="JcnzHYC7QVYUQ1IUo25t-21" value="BlockState" style="swimlane;fontStyle=1;align=center;verticalAlign=top;childLayout=stackLayout;horizontal=1;startSize=26;horizontalStack=0;resizeParent=1;resizeParentMax=0;resizeLast=0;collapsible=1;marginBottom=0;" parent="1" vertex="1">
          <mxGeometry x="-230" y="1260" width="240" height="90" as="geometry" />
        </mxCell>
        <mxCell id="JcnzHYC7QVYUQ1IUo25t-22" value="+Constructor(PlayerMovementManager)" style="text;strokeColor=none;fillColor=none;align=left;verticalAlign=top;spacingLeft=4;spacingRight=4;overflow=hidden;rotatable=0;points=[[0,0.5],[1,0.5]];portConstraint=eastwest;" parent="JcnzHYC7QVYUQ1IUo25t-21" vertex="1">
          <mxGeometry y="26" width="240" height="30" as="geometry" />
        </mxCell>
        <mxCell id="JcnzHYC7QVYUQ1IUo25t-23" value="" style="line;strokeWidth=1;fillColor=none;align=left;verticalAlign=middle;spacingTop=-1;spacingLeft=3;spacingRight=3;rotatable=0;labelPosition=right;points=[];portConstraint=eastwest;" parent="JcnzHYC7QVYUQ1IUo25t-21" vertex="1">
          <mxGeometry y="56" width="240" height="8" as="geometry" />
        </mxCell>
        <mxCell id="JcnzHYC7QVYUQ1IUo25t-24" value="+ method(type): type" style="text;strokeColor=none;fillColor=none;align=left;verticalAlign=top;spacingLeft=4;spacingRight=4;overflow=hidden;rotatable=0;points=[[0,0.5],[1,0.5]];portConstraint=eastwest;" parent="JcnzHYC7QVYUQ1IUo25t-21" vertex="1">
          <mxGeometry y="64" width="240" height="26" as="geometry" />
        </mxCell>
        <mxCell id="JcnzHYC7QVYUQ1IUo25t-37" value="PlayerMovementManager" style="swimlane;fontStyle=1;align=center;verticalAlign=top;childLayout=stackLayout;horizontal=1;startSize=26;horizontalStack=0;resizeParent=1;resizeParentMax=0;resizeLast=0;collapsible=1;marginBottom=0;" parent="1" vertex="1">
          <mxGeometry x="-210" y="40" width="300" height="428" as="geometry" />
        </mxCell>
        <mxCell id="JcnzHYC7QVYUQ1IUo25t-38" value="&#xa;+m_MoveInput: Vector2&#xa;+m_CurrentMoveDirection: Vector2&#xa;-m_CurrentState: MovementStateBase&#xa;-m_IdleState: IdleState&#xa;-m_WalkState: WalkState&#xa;-m_AttackState: AttackState&#xa;-m_BlockState: BlockState" style="text;strokeColor=none;fillColor=none;align=left;verticalAlign=top;spacingLeft=4;spacingRight=4;overflow=hidden;rotatable=0;points=[[0,0.5],[1,0.5]];portConstraint=eastwest;" parent="JcnzHYC7QVYUQ1IUo25t-37" vertex="1">
          <mxGeometry y="26" width="300" height="184" as="geometry" />
        </mxCell>
        <mxCell id="JcnzHYC7QVYUQ1IUo25t-39" value="" style="line;strokeWidth=1;fillColor=none;align=left;verticalAlign=middle;spacingTop=-1;spacingLeft=3;spacingRight=3;rotatable=0;labelPosition=right;points=[];portConstraint=eastwest;" parent="JcnzHYC7QVYUQ1IUo25t-37" vertex="1">
          <mxGeometry y="210" width="300" height="8" as="geometry" />
        </mxCell>
        <mxCell id="JcnzHYC7QVYUQ1IUo25t-40" value="# override OnAwake():void&#xa;# override OnStart():void&#xa;# override OnEnable():void&#xa;# override OnDisable():void&#xa;# override OnUpdate():void&#xa;+SwitchState(MovementStateBase new State):void&#xa;-PlayerInput():void&#xa;&#xa;&#xa;&#xa;&#xa;&#xa;&#xa;-" style="text;strokeColor=none;fillColor=none;align=left;verticalAlign=top;spacingLeft=4;spacingRight=4;overflow=hidden;rotatable=0;points=[[0,0.5],[1,0.5]];portConstraint=eastwest;" parent="JcnzHYC7QVYUQ1IUo25t-37" vertex="1">
          <mxGeometry y="218" width="300" height="210" as="geometry" />
        </mxCell>
        <mxCell id="7YV_X0WLbBOmp0Il-c3y-9" style="edgeStyle=orthogonalEdgeStyle;rounded=0;orthogonalLoop=1;jettySize=auto;html=1;exitX=0.5;exitY=0;exitDx=0;exitDy=0;entryX=0.494;entryY=0.973;entryDx=0;entryDy=0;entryPerimeter=0;" parent="1" source="JcnzHYC7QVYUQ1IUo25t-41" target="7YV_X0WLbBOmp0Il-c3y-6" edge="1">
          <mxGeometry relative="1" as="geometry">
            <Array as="points">
              <mxPoint x="-170" y="540" />
              <mxPoint x="-420" y="540" />
              <mxPoint x="-420" y="398" />
              <mxPoint x="-741" y="398" />
            </Array>
          </mxGeometry>
        </mxCell>
        <mxCell id="JcnzHYC7QVYUQ1IUo25t-41" value="&lt;p style=&quot;margin:0px;margin-top:4px;text-align:center;&quot;&gt;&lt;i&gt;&amp;lt;&amp;lt;Interface&amp;gt;&amp;gt;&lt;/i&gt;&lt;br&gt;&lt;b&gt;IMovementStateBase&lt;/b&gt;&lt;/p&gt;&lt;p style=&quot;margin:0px;margin-left:4px;&quot;&gt;&lt;br&gt;&lt;/p&gt;&lt;hr size=&quot;1&quot;&gt;&lt;p style=&quot;margin:0px;margin-left:4px;&quot;&gt;+ OnEnterState():void&lt;/p&gt;&lt;p style=&quot;margin:0px;margin-left:4px;&quot;&gt;+ OnUpdateState():void&lt;/p&gt;&lt;p style=&quot;margin:0px;margin-left:4px;&quot;&gt;+OnExitState():void&lt;/p&gt;" style="verticalAlign=top;align=left;overflow=fill;fontSize=12;fontFamily=Helvetica;html=1;" parent="1" vertex="1">
          <mxGeometry x="-330" y="610" width="320" height="260" as="geometry" />
        </mxCell>
        <mxCell id="JcnzHYC7QVYUQ1IUo25t-52" value="IdleState" style="swimlane;fontStyle=1;align=center;verticalAlign=top;childLayout=stackLayout;horizontal=1;startSize=26;horizontalStack=0;resizeParent=1;resizeParentMax=0;resizeLast=0;collapsible=1;marginBottom=0;" parent="1" vertex="1">
          <mxGeometry x="-580" y="930" width="340" height="184" as="geometry" />
        </mxCell>
        <mxCell id="JcnzHYC7QVYUQ1IUo25t-53" value="-m_SubStates: List&lt;IMovementStateBase&gt;&#xa;-m_CurrentSubState: IMovementStateBase&#xa;-m_movementManager: PlayerMovementManager&#xa;-m_MoveInput: Vector2&#xa;-m_Animator: Animator" style="text;strokeColor=none;fillColor=none;align=left;verticalAlign=top;spacingLeft=4;spacingRight=4;overflow=hidden;rotatable=0;points=[[0,0.5],[1,0.5]];portConstraint=eastwest;" parent="JcnzHYC7QVYUQ1IUo25t-52" vertex="1">
          <mxGeometry y="26" width="340" height="124" as="geometry" />
        </mxCell>
        <mxCell id="JcnzHYC7QVYUQ1IUo25t-54" value="" style="line;strokeWidth=1;fillColor=none;align=left;verticalAlign=middle;spacingTop=-1;spacingLeft=3;spacingRight=3;rotatable=0;labelPosition=right;points=[];portConstraint=eastwest;" parent="JcnzHYC7QVYUQ1IUo25t-52" vertex="1">
          <mxGeometry y="150" width="340" height="8" as="geometry" />
        </mxCell>
        <mxCell id="JcnzHYC7QVYUQ1IUo25t-55" value="+Constructor(PlayerMovementManager)" style="text;strokeColor=none;fillColor=none;align=left;verticalAlign=top;spacingLeft=4;spacingRight=4;overflow=hidden;rotatable=0;points=[[0,0.5],[1,0.5]];portConstraint=eastwest;" parent="JcnzHYC7QVYUQ1IUo25t-52" vertex="1">
          <mxGeometry y="158" width="340" height="26" as="geometry" />
        </mxCell>
        <mxCell id="7YV_X0WLbBOmp0Il-c3y-2" value="&lt;p style=&quot;margin:0px;margin-top:4px;text-align:center;&quot;&gt;&lt;i&gt;&amp;lt;&amp;lt;Interface&amp;gt;&amp;gt;&lt;/i&gt;&lt;br&gt;&lt;b&gt;IPlayerProfile&lt;/b&gt;&lt;/p&gt;&lt;hr size=&quot;1&quot;&gt;&lt;p style=&quot;margin:0px;margin-left:4px;&quot;&gt;+ field1: Type&lt;br&gt;+ field2: Type&lt;/p&gt;&lt;hr size=&quot;1&quot;&gt;&lt;p style=&quot;margin:0px;margin-left:4px;&quot;&gt;+ method1(Type): Type&lt;br&gt;+ method2(Type, Type): Type&lt;/p&gt;" style="verticalAlign=top;align=left;overflow=fill;fontSize=12;fontFamily=Helvetica;html=1;" parent="1" vertex="1">
          <mxGeometry x="-810" y="-140" width="190" height="140" as="geometry" />
        </mxCell>
        <mxCell id="7YV_X0WLbBOmp0Il-c3y-7" style="edgeStyle=orthogonalEdgeStyle;rounded=0;orthogonalLoop=1;jettySize=auto;html=1;exitX=0.5;exitY=0;exitDx=0;exitDy=0;entryX=0.5;entryY=1;entryDx=0;entryDy=0;" parent="1" source="7YV_X0WLbBOmp0Il-c3y-3" target="7YV_X0WLbBOmp0Il-c3y-2" edge="1">
          <mxGeometry relative="1" as="geometry" />
        </mxCell>
        <mxCell id="7YV_X0WLbBOmp0Il-c3y-3" value="PirateMovementProfile" style="swimlane;fontStyle=1;align=center;verticalAlign=top;childLayout=stackLayout;horizontal=1;startSize=26;horizontalStack=0;resizeParent=1;resizeParentMax=0;resizeLast=0;collapsible=1;marginBottom=0;" parent="1" vertex="1">
          <mxGeometry x="-820" y="100" width="160" height="86" as="geometry" />
        </mxCell>
        <mxCell id="7YV_X0WLbBOmp0Il-c3y-4" value="+ field: type" style="text;strokeColor=none;fillColor=none;align=left;verticalAlign=top;spacingLeft=4;spacingRight=4;overflow=hidden;rotatable=0;points=[[0,0.5],[1,0.5]];portConstraint=eastwest;" parent="7YV_X0WLbBOmp0Il-c3y-3" vertex="1">
          <mxGeometry y="26" width="160" height="26" as="geometry" />
        </mxCell>
        <mxCell id="7YV_X0WLbBOmp0Il-c3y-5" value="" style="line;strokeWidth=1;fillColor=none;align=left;verticalAlign=middle;spacingTop=-1;spacingLeft=3;spacingRight=3;rotatable=0;labelPosition=right;points=[];portConstraint=eastwest;" parent="7YV_X0WLbBOmp0Il-c3y-3" vertex="1">
          <mxGeometry y="52" width="160" height="8" as="geometry" />
        </mxCell>
        <mxCell id="7YV_X0WLbBOmp0Il-c3y-6" value="+ method(type): type" style="text;strokeColor=none;fillColor=none;align=left;verticalAlign=top;spacingLeft=4;spacingRight=4;overflow=hidden;rotatable=0;points=[[0,0.5],[1,0.5]];portConstraint=eastwest;" parent="7YV_X0WLbBOmp0Il-c3y-3" vertex="1">
          <mxGeometry y="60" width="160" height="26" as="geometry" />
        </mxCell>
        <mxCell id="7YV_X0WLbBOmp0Il-c3y-8" style="edgeStyle=orthogonalEdgeStyle;rounded=0;orthogonalLoop=1;jettySize=auto;html=1;exitX=1;exitY=0.5;exitDx=0;exitDy=0;entryX=0;entryY=0.5;entryDx=0;entryDy=0;" parent="1" source="7YV_X0WLbBOmp0Il-c3y-4" target="JcnzHYC7QVYUQ1IUo25t-38" edge="1">
          <mxGeometry relative="1" as="geometry" />
        </mxCell>
        <mxCell id="jYEJ5_x8OXlnwCMzHCqk-1" value="PlayerMovementController(Mono)" style="swimlane;fontStyle=1;align=center;verticalAlign=top;childLayout=stackLayout;horizontal=1;startSize=26;horizontalStack=0;resizeParent=1;resizeParentMax=0;resizeLast=0;collapsible=1;marginBottom=0;" parent="1" vertex="1">
          <mxGeometry x="2320" y="-560" width="400" height="244" as="geometry" />
        </mxCell>
        <mxCell id="jYEJ5_x8OXlnwCMzHCqk-2" value="-m_MovementModel: PlayerMovementModel&#xa;-m_MovementView: PlayerMovementView&#xa;&#xa;-m_CharacterController: CharacterController&#xa;-m_Animator: Animator&#xa;-m_MoveInput: Vector2&#xa;-m_MoveSpeed: float&#xa;-m_Sprite: Sprite&#xa;&#xa;-[SerialzieField] m_Proflies: List&lt;PlayerData&gt;&#xa;-m_Profile: PlayerData" style="text;strokeColor=none;fillColor=none;align=left;verticalAlign=top;spacingLeft=4;spacingRight=4;overflow=hidden;rotatable=0;points=[[0,0.5],[1,0.5]];portConstraint=eastwest;" parent="jYEJ5_x8OXlnwCMzHCqk-1" vertex="1">
          <mxGeometry y="26" width="400" height="170" as="geometry" />
        </mxCell>
        <mxCell id="jYEJ5_x8OXlnwCMzHCqk-3" value="" style="line;strokeWidth=1;fillColor=none;align=left;verticalAlign=middle;spacingTop=-1;spacingLeft=3;spacingRight=3;rotatable=0;labelPosition=right;points=[];portConstraint=eastwest;" parent="jYEJ5_x8OXlnwCMzHCqk-1" vertex="1">
          <mxGeometry y="196" width="400" height="8" as="geometry" />
        </mxCell>
        <mxCell id="jYEJ5_x8OXlnwCMzHCqk-4" value="-UserInput(): void&#xa;-Switch(profileIndex:int): void" style="text;strokeColor=none;fillColor=none;align=left;verticalAlign=top;spacingLeft=4;spacingRight=4;overflow=hidden;rotatable=0;points=[[0,0.5],[1,0.5]];portConstraint=eastwest;" parent="jYEJ5_x8OXlnwCMzHCqk-1" vertex="1">
          <mxGeometry y="204" width="400" height="40" as="geometry" />
        </mxCell>
        <mxCell id="jYEJ5_x8OXlnwCMzHCqk-5" value="PlayerMovementModel" style="swimlane;fontStyle=1;align=center;verticalAlign=top;childLayout=stackLayout;horizontal=1;startSize=26;horizontalStack=0;resizeParent=1;resizeParentMax=0;resizeLast=0;collapsible=1;marginBottom=0;" parent="1" vertex="1">
          <mxGeometry x="1790" y="-180" width="430" height="130" as="geometry" />
        </mxCell>
        <mxCell id="jYEJ5_x8OXlnwCMzHCqk-6" value="Delegate:IPlayerMovementModel&#xa;m_Data: PlayerData" style="text;strokeColor=none;fillColor=none;align=left;verticalAlign=top;spacingLeft=4;spacingRight=4;overflow=hidden;rotatable=0;points=[[0,0.5],[1,0.5]];portConstraint=eastwest;" parent="jYEJ5_x8OXlnwCMzHCqk-5" vertex="1">
          <mxGeometry y="26" width="430" height="42" as="geometry" />
        </mxCell>
        <mxCell id="jYEJ5_x8OXlnwCMzHCqk-7" value="" style="line;strokeWidth=1;fillColor=none;align=left;verticalAlign=middle;spacingTop=-1;spacingLeft=3;spacingRight=3;rotatable=0;labelPosition=right;points=[];portConstraint=eastwest;" parent="jYEJ5_x8OXlnwCMzHCqk-5" vertex="1">
          <mxGeometry y="68" width="430" height="8" as="geometry" />
        </mxCell>
        <mxCell id="jYEJ5_x8OXlnwCMzHCqk-8" value="+constructor(iPlayerMovementModel:IPlayerMovementModel)&#xa;+SwitchModel(profile: PlayerData): void" style="text;strokeColor=none;fillColor=none;align=left;verticalAlign=top;spacingLeft=4;spacingRight=4;overflow=hidden;rotatable=0;points=[[0,0.5],[1,0.5]];portConstraint=eastwest;" parent="jYEJ5_x8OXlnwCMzHCqk-5" vertex="1">
          <mxGeometry y="76" width="430" height="54" as="geometry" />
        </mxCell>
        <mxCell id="jYEJ5_x8OXlnwCMzHCqk-9" value="PlayerMovementView" style="swimlane;fontStyle=1;align=center;verticalAlign=top;childLayout=stackLayout;horizontal=1;startSize=26;horizontalStack=0;resizeParent=1;resizeParentMax=0;resizeLast=0;collapsible=1;marginBottom=0;" parent="1" vertex="1">
          <mxGeometry x="2820" y="-316" width="350" height="280" as="geometry" />
        </mxCell>
        <mxCell id="jYEJ5_x8OXlnwCMzHCqk-10" value="-Delegare: IPlayerMovementView&#xa;-m_Data: PlayerData" style="text;strokeColor=none;fillColor=none;align=left;verticalAlign=top;spacingLeft=4;spacingRight=4;overflow=hidden;rotatable=0;points=[[0,0.5],[1,0.5]];portConstraint=eastwest;" parent="jYEJ5_x8OXlnwCMzHCqk-9" vertex="1">
          <mxGeometry y="26" width="350" height="154" as="geometry" />
        </mxCell>
        <mxCell id="jYEJ5_x8OXlnwCMzHCqk-11" value="" style="line;strokeWidth=1;fillColor=none;align=left;verticalAlign=middle;spacingTop=-1;spacingLeft=3;spacingRight=3;rotatable=0;labelPosition=right;points=[];portConstraint=eastwest;" parent="jYEJ5_x8OXlnwCMzHCqk-9" vertex="1">
          <mxGeometry y="180" width="350" height="8" as="geometry" />
        </mxCell>
        <mxCell id="jYEJ5_x8OXlnwCMzHCqk-12" value="+Constructor(iPlayerMovementView: IPlayerMovementView)&#xa;+SwitchView(profile: PlayerData): void" style="text;strokeColor=none;fillColor=none;align=left;verticalAlign=top;spacingLeft=4;spacingRight=4;overflow=hidden;rotatable=0;points=[[0,0.5],[1,0.5]];portConstraint=eastwest;" parent="jYEJ5_x8OXlnwCMzHCqk-9" vertex="1">
          <mxGeometry y="188" width="350" height="92" as="geometry" />
        </mxCell>
        <mxCell id="jYEJ5_x8OXlnwCMzHCqk-13" value="&lt;p style=&quot;margin:0px;margin-top:4px;text-align:center;&quot;&gt;&lt;i&gt;&amp;lt;&amp;lt;Interface&amp;gt;&amp;gt;&lt;/i&gt;&lt;br&gt;&lt;b&gt;IPlayerMovementModel&lt;/b&gt;&lt;/p&gt;&lt;hr size=&quot;1&quot;&gt;&lt;p style=&quot;margin:0px;margin-left:4px;&quot;&gt;&lt;br&gt;&lt;/p&gt;&lt;hr size=&quot;1&quot;&gt;&lt;p style=&quot;margin:0px;margin-left:4px;&quot;&gt;+OnModelSwitch(moveSpeed: float): void&lt;/p&gt;" style="verticalAlign=top;align=left;overflow=fill;fontSize=12;fontFamily=Helvetica;html=1;" parent="1" vertex="1">
          <mxGeometry x="2140" y="-820" width="270" height="140" as="geometry" />
        </mxCell>
        <mxCell id="jYEJ5_x8OXlnwCMzHCqk-14" value="&lt;p style=&quot;margin:0px;margin-top:4px;text-align:center;&quot;&gt;&lt;i&gt;&amp;lt;&amp;lt;Interface&amp;gt;&amp;gt;&lt;/i&gt;&lt;br&gt;&lt;b&gt;IPlayerMovementView&lt;/b&gt;&lt;/p&gt;&lt;hr size=&quot;1&quot;&gt;&lt;p style=&quot;margin:0px;margin-left:4px;&quot;&gt;&lt;br&gt;&lt;/p&gt;&lt;hr size=&quot;1&quot;&gt;&lt;p style=&quot;margin:0px;margin-left:4px;&quot;&gt;+OnViewSwitch(animatorController:AnimatorController, sprite:Sprite)&lt;/p&gt;" style="verticalAlign=top;align=left;overflow=fill;fontSize=12;fontFamily=Helvetica;html=1;" parent="1" vertex="1">
          <mxGeometry x="2455" y="-820" width="395" height="140" as="geometry" />
        </mxCell>
        <mxCell id="jYEJ5_x8OXlnwCMzHCqk-15" value="" style="endArrow=block;dashed=1;endFill=0;endSize=12;html=1;rounded=0;entryX=0.25;entryY=0;entryDx=0;entryDy=0;exitX=0.5;exitY=1;exitDx=0;exitDy=0;" parent="1" source="jYEJ5_x8OXlnwCMzHCqk-13" target="jYEJ5_x8OXlnwCMzHCqk-1" edge="1">
          <mxGeometry width="160" relative="1" as="geometry">
            <mxPoint x="2090" y="-650" as="sourcePoint" />
            <mxPoint x="2250" y="-650" as="targetPoint" />
          </mxGeometry>
        </mxCell>
        <mxCell id="jYEJ5_x8OXlnwCMzHCqk-16" value="" style="endArrow=block;dashed=1;endFill=0;endSize=12;html=1;rounded=0;entryX=0.75;entryY=0;entryDx=0;entryDy=0;exitX=0.5;exitY=1;exitDx=0;exitDy=0;" parent="1" source="jYEJ5_x8OXlnwCMzHCqk-14" target="jYEJ5_x8OXlnwCMzHCqk-1" edge="1">
          <mxGeometry width="160" relative="1" as="geometry">
            <mxPoint x="2410" y="-690" as="sourcePoint" />
            <mxPoint x="2497.5" y="-590" as="targetPoint" />
          </mxGeometry>
        </mxCell>
        <mxCell id="jYEJ5_x8OXlnwCMzHCqk-20" value="Relation" style="endArrow=open;html=1;endSize=12;startArrow=diamondThin;startSize=14;startFill=0;edgeStyle=orthogonalEdgeStyle;rounded=0;exitX=0;exitY=0.5;exitDx=0;exitDy=0;" parent="1" source="jYEJ5_x8OXlnwCMzHCqk-2" target="jYEJ5_x8OXlnwCMzHCqk-5" edge="1">
          <mxGeometry relative="1" as="geometry">
            <mxPoint x="1890" y="-550" as="sourcePoint" />
            <mxPoint x="2050" y="-550" as="targetPoint" />
          </mxGeometry>
        </mxCell>
        <mxCell id="jYEJ5_x8OXlnwCMzHCqk-21" value="1" style="edgeLabel;resizable=0;html=1;align=left;verticalAlign=top;" parent="jYEJ5_x8OXlnwCMzHCqk-20" connectable="0" vertex="1">
          <mxGeometry x="-1" relative="1" as="geometry">
            <mxPoint x="-40" y="-19" as="offset" />
          </mxGeometry>
        </mxCell>
        <mxCell id="jYEJ5_x8OXlnwCMzHCqk-22" value="1" style="edgeLabel;resizable=0;html=1;align=right;verticalAlign=top;" parent="jYEJ5_x8OXlnwCMzHCqk-20" connectable="0" vertex="1">
          <mxGeometry x="1" relative="1" as="geometry">
            <mxPoint y="-50" as="offset" />
          </mxGeometry>
        </mxCell>
        <mxCell id="jYEJ5_x8OXlnwCMzHCqk-24" value="Relation" style="endArrow=open;html=1;endSize=12;startArrow=diamondThin;startSize=14;startFill=0;edgeStyle=orthogonalEdgeStyle;rounded=0;exitX=1;exitY=0.5;exitDx=0;exitDy=0;entryX=0.5;entryY=0;entryDx=0;entryDy=0;" parent="1" source="jYEJ5_x8OXlnwCMzHCqk-2" target="jYEJ5_x8OXlnwCMzHCqk-9" edge="1">
          <mxGeometry relative="1" as="geometry">
            <mxPoint x="2740" y="-592.5" as="sourcePoint" />
            <mxPoint x="2660" y="-441.5" as="targetPoint" />
          </mxGeometry>
        </mxCell>
        <mxCell id="jYEJ5_x8OXlnwCMzHCqk-25" value="1" style="edgeLabel;resizable=0;html=1;align=left;verticalAlign=top;" parent="jYEJ5_x8OXlnwCMzHCqk-24" connectable="0" vertex="1">
          <mxGeometry x="-1" relative="1" as="geometry">
            <mxPoint x="20" y="-19" as="offset" />
          </mxGeometry>
        </mxCell>
        <mxCell id="jYEJ5_x8OXlnwCMzHCqk-26" value="1" style="edgeLabel;resizable=0;html=1;align=right;verticalAlign=top;" parent="jYEJ5_x8OXlnwCMzHCqk-24" connectable="0" vertex="1">
          <mxGeometry x="1" relative="1" as="geometry">
            <mxPoint y="-50" as="offset" />
          </mxGeometry>
        </mxCell>
        <mxCell id="N49cItZRoUy_AXhQhiwh-1" value="&lt;p style=&quot;margin:0px;margin-top:4px;text-align:center;&quot;&gt;&lt;i&gt;&amp;lt;&amp;lt;Interface&amp;gt;&amp;gt;&lt;/i&gt;&lt;br&gt;&lt;b&gt;IMovementStateBase&lt;/b&gt;&lt;/p&gt;&lt;p style=&quot;margin:0px;margin-left:4px;&quot;&gt;&lt;br&gt;&lt;/p&gt;&lt;hr size=&quot;1&quot;&gt;&lt;p style=&quot;margin:0px;margin-left:4px;&quot;&gt;+ OnEnterState():void&lt;/p&gt;&lt;p style=&quot;margin:0px;margin-left:4px;&quot;&gt;+ OnUpdateState():void&lt;/p&gt;&lt;p style=&quot;margin:0px;margin-left:4px;&quot;&gt;+OnExitState():void&lt;/p&gt;" style="verticalAlign=top;align=left;overflow=fill;fontSize=12;fontFamily=Helvetica;html=1;" parent="1" vertex="1">
          <mxGeometry x="1860" y="40" width="320" height="260" as="geometry" />
        </mxCell>
        <mxCell id="N49cItZRoUy_AXhQhiwh-5" style="edgeStyle=orthogonalEdgeStyle;rounded=0;orthogonalLoop=1;jettySize=auto;html=1;exitX=0.5;exitY=0;exitDx=0;exitDy=0;entryX=0.5;entryY=1;entryDx=0;entryDy=0;" parent="1" source="N49cItZRoUy_AXhQhiwh-2" target="N49cItZRoUy_AXhQhiwh-4" edge="1">
          <mxGeometry relative="1" as="geometry" />
        </mxCell>
        <mxCell id="N49cItZRoUy_AXhQhiwh-2" value="PlayerProfile(ScriptableObject)" style="swimlane;fontStyle=1;childLayout=stackLayout;horizontal=1;startSize=26;fillColor=none;horizontalStack=0;resizeParent=1;resizeParentMax=0;resizeLast=0;collapsible=1;marginBottom=0;" parent="1" vertex="1">
          <mxGeometry x="1250" y="-340" width="230" height="170" as="geometry" />
        </mxCell>
        <mxCell id="N49cItZRoUy_AXhQhiwh-3" value="+m_ProfileType:ProfileType&#xa;" style="text;strokeColor=none;fillColor=none;align=left;verticalAlign=top;spacingLeft=4;spacingRight=4;overflow=hidden;rotatable=0;points=[[0,0.5],[1,0.5]];portConstraint=eastwest;" parent="N49cItZRoUy_AXhQhiwh-2" vertex="1">
          <mxGeometry y="26" width="230" height="144" as="geometry" />
        </mxCell>
        <mxCell id="N49cItZRoUy_AXhQhiwh-4" value="&lt;b&gt;&amp;lt;&amp;lt;enummeration&amp;gt;&amp;gt;&lt;br&gt;ProfileType&lt;br&gt;{&lt;br&gt;&lt;span style=&quot;white-space: pre;&quot;&gt; &lt;/span&gt;Pirate,&lt;br&gt;&lt;span style=&quot;white-space: pre;&quot;&gt; &lt;/span&gt;Ship&lt;br&gt;}&lt;br&gt;&lt;/b&gt;" style="html=1;align=left;" parent="1" vertex="1">
          <mxGeometry x="1100" y="-510" width="130" height="100" as="geometry" />
        </mxCell>
        <mxCell id="UqajKjzIm8EiFfWzJ6l2-1" value="PlayerMovementController(Mono)" style="swimlane;fontStyle=1;align=center;verticalAlign=top;childLayout=stackLayout;horizontal=1;startSize=26;horizontalStack=0;resizeParent=1;resizeParentMax=0;resizeLast=0;collapsible=1;marginBottom=0;" vertex="1" parent="1">
          <mxGeometry x="1980" y="1240" width="470" height="448" as="geometry" />
        </mxCell>
        <mxCell id="UqajKjzIm8EiFfWzJ6l2-2" value="- m_CurrentProfile: IMovementStateBase&#xa;- m_ProfileList: List&lt;IMovementStateBase&gt;&#xa;" style="text;strokeColor=none;fillColor=none;align=left;verticalAlign=top;spacingLeft=4;spacingRight=4;overflow=hidden;rotatable=0;points=[[0,0.5],[1,0.5]];portConstraint=eastwest;" vertex="1" parent="UqajKjzIm8EiFfWzJ6l2-1">
          <mxGeometry y="26" width="470" height="124" as="geometry" />
        </mxCell>
        <mxCell id="UqajKjzIm8EiFfWzJ6l2-3" value="" style="line;strokeWidth=1;fillColor=none;align=left;verticalAlign=middle;spacingTop=-1;spacingLeft=3;spacingRight=3;rotatable=0;labelPosition=right;points=[];portConstraint=eastwest;" vertex="1" parent="UqajKjzIm8EiFfWzJ6l2-1">
          <mxGeometry y="150" width="470" height="8" as="geometry" />
        </mxCell>
        <mxCell id="UqajKjzIm8EiFfWzJ6l2-4" value="+ method(type): type" style="text;strokeColor=none;fillColor=none;align=left;verticalAlign=top;spacingLeft=4;spacingRight=4;overflow=hidden;rotatable=0;points=[[0,0.5],[1,0.5]];portConstraint=eastwest;" vertex="1" parent="UqajKjzIm8EiFfWzJ6l2-1">
          <mxGeometry y="158" width="470" height="290" as="geometry" />
        </mxCell>
        <mxCell id="UqajKjzIm8EiFfWzJ6l2-5" value="&lt;p style=&quot;margin:0px;margin-top:4px;text-align:center;&quot;&gt;&lt;i&gt;&amp;lt;&amp;lt;Interface&amp;gt;&amp;gt;&lt;/i&gt;&lt;br&gt;&lt;b&gt;IMovementStateBase&lt;/b&gt;&lt;/p&gt;&lt;p style=&quot;margin:0px;margin-left:4px;&quot;&gt;&lt;br&gt;&lt;/p&gt;&lt;hr size=&quot;1&quot;&gt;&lt;p style=&quot;margin:0px;margin-left:4px;&quot;&gt;+EnterState(): void&lt;/p&gt;&lt;p style=&quot;margin:0px;margin-left:4px;&quot;&gt;+ExitState(): void&lt;/p&gt;&lt;p style=&quot;margin:0px;margin-left:4px;&quot;&gt;+UpdateState():void&lt;/p&gt;" style="verticalAlign=top;align=left;overflow=fill;fontSize=12;fontFamily=Helvetica;html=1;" vertex="1" parent="1">
          <mxGeometry x="2795" y="1240" width="190" height="140" as="geometry" />
        </mxCell>
        <mxCell id="UqajKjzIm8EiFfWzJ6l2-10" value="PirateMovementStateBase(Scriptable)" style="swimlane;fontStyle=1;align=center;verticalAlign=top;childLayout=stackLayout;horizontal=1;startSize=26;horizontalStack=0;resizeParent=1;resizeParentMax=0;resizeLast=0;collapsible=1;marginBottom=0;" vertex="1" parent="1">
          <mxGeometry x="2655" y="1500" width="260" height="154" as="geometry" />
        </mxCell>
        <mxCell id="UqajKjzIm8EiFfWzJ6l2-11" value="+ m_Animator: Animator&#xa;" style="text;strokeColor=none;fillColor=none;align=left;verticalAlign=top;spacingLeft=4;spacingRight=4;overflow=hidden;rotatable=0;points=[[0,0.5],[1,0.5]];portConstraint=eastwest;" vertex="1" parent="UqajKjzIm8EiFfWzJ6l2-10">
          <mxGeometry y="26" width="260" height="94" as="geometry" />
        </mxCell>
        <mxCell id="UqajKjzIm8EiFfWzJ6l2-12" value="" style="line;strokeWidth=1;fillColor=none;align=left;verticalAlign=middle;spacingTop=-1;spacingLeft=3;spacingRight=3;rotatable=0;labelPosition=right;points=[];portConstraint=eastwest;" vertex="1" parent="UqajKjzIm8EiFfWzJ6l2-10">
          <mxGeometry y="120" width="260" height="8" as="geometry" />
        </mxCell>
        <mxCell id="UqajKjzIm8EiFfWzJ6l2-13" value="+ method(type): type" style="text;strokeColor=none;fillColor=none;align=left;verticalAlign=top;spacingLeft=4;spacingRight=4;overflow=hidden;rotatable=0;points=[[0,0.5],[1,0.5]];portConstraint=eastwest;" vertex="1" parent="UqajKjzIm8EiFfWzJ6l2-10">
          <mxGeometry y="128" width="260" height="26" as="geometry" />
        </mxCell>
        <mxCell id="UqajKjzIm8EiFfWzJ6l2-18" value="ShipMovementStateBase(Scriptable)" style="swimlane;fontStyle=1;align=center;verticalAlign=top;childLayout=stackLayout;horizontal=1;startSize=26;horizontalStack=0;resizeParent=1;resizeParentMax=0;resizeLast=0;collapsible=1;marginBottom=0;" vertex="1" parent="1">
          <mxGeometry x="3320" y="1500" width="260" height="86" as="geometry" />
        </mxCell>
        <mxCell id="UqajKjzIm8EiFfWzJ6l2-19" value="+ field: type" style="text;strokeColor=none;fillColor=none;align=left;verticalAlign=top;spacingLeft=4;spacingRight=4;overflow=hidden;rotatable=0;points=[[0,0.5],[1,0.5]];portConstraint=eastwest;" vertex="1" parent="UqajKjzIm8EiFfWzJ6l2-18">
          <mxGeometry y="26" width="260" height="26" as="geometry" />
        </mxCell>
        <mxCell id="UqajKjzIm8EiFfWzJ6l2-20" value="" style="line;strokeWidth=1;fillColor=none;align=left;verticalAlign=middle;spacingTop=-1;spacingLeft=3;spacingRight=3;rotatable=0;labelPosition=right;points=[];portConstraint=eastwest;" vertex="1" parent="UqajKjzIm8EiFfWzJ6l2-18">
          <mxGeometry y="52" width="260" height="8" as="geometry" />
        </mxCell>
        <mxCell id="UqajKjzIm8EiFfWzJ6l2-21" value="+ method(type): type" style="text;strokeColor=none;fillColor=none;align=left;verticalAlign=top;spacingLeft=4;spacingRight=4;overflow=hidden;rotatable=0;points=[[0,0.5],[1,0.5]];portConstraint=eastwest;" vertex="1" parent="UqajKjzIm8EiFfWzJ6l2-18">
          <mxGeometry y="60" width="260" height="26" as="geometry" />
        </mxCell>
        <mxCell id="UqajKjzIm8EiFfWzJ6l2-42" style="edgeStyle=orthogonalEdgeStyle;rounded=0;orthogonalLoop=1;jettySize=auto;html=1;exitX=0.5;exitY=0;exitDx=0;exitDy=0;entryX=0.478;entryY=1.026;entryDx=0;entryDy=0;entryPerimeter=0;" edge="1" parent="1" source="UqajKjzIm8EiFfWzJ6l2-22" target="UqajKjzIm8EiFfWzJ6l2-13">
          <mxGeometry relative="1" as="geometry" />
        </mxCell>
        <mxCell id="UqajKjzIm8EiFfWzJ6l2-22" value="PirateIdleState" style="swimlane;fontStyle=1;align=center;verticalAlign=top;childLayout=stackLayout;horizontal=1;startSize=26;horizontalStack=0;resizeParent=1;resizeParentMax=0;resizeLast=0;collapsible=1;marginBottom=0;" vertex="1" parent="1">
          <mxGeometry x="2440" y="1890" width="160" height="86" as="geometry" />
        </mxCell>
        <mxCell id="UqajKjzIm8EiFfWzJ6l2-23" value="+ field: type" style="text;strokeColor=none;fillColor=none;align=left;verticalAlign=top;spacingLeft=4;spacingRight=4;overflow=hidden;rotatable=0;points=[[0,0.5],[1,0.5]];portConstraint=eastwest;" vertex="1" parent="UqajKjzIm8EiFfWzJ6l2-22">
          <mxGeometry y="26" width="160" height="26" as="geometry" />
        </mxCell>
        <mxCell id="UqajKjzIm8EiFfWzJ6l2-24" value="" style="line;strokeWidth=1;fillColor=none;align=left;verticalAlign=middle;spacingTop=-1;spacingLeft=3;spacingRight=3;rotatable=0;labelPosition=right;points=[];portConstraint=eastwest;" vertex="1" parent="UqajKjzIm8EiFfWzJ6l2-22">
          <mxGeometry y="52" width="160" height="8" as="geometry" />
        </mxCell>
        <mxCell id="UqajKjzIm8EiFfWzJ6l2-25" value="+ method(type): type" style="text;strokeColor=none;fillColor=none;align=left;verticalAlign=top;spacingLeft=4;spacingRight=4;overflow=hidden;rotatable=0;points=[[0,0.5],[1,0.5]];portConstraint=eastwest;" vertex="1" parent="UqajKjzIm8EiFfWzJ6l2-22">
          <mxGeometry y="60" width="160" height="26" as="geometry" />
        </mxCell>
        <mxCell id="UqajKjzIm8EiFfWzJ6l2-44" style="edgeStyle=orthogonalEdgeStyle;rounded=0;orthogonalLoop=1;jettySize=auto;html=1;exitX=0.5;exitY=0;exitDx=0;exitDy=0;entryX=0.487;entryY=1.026;entryDx=0;entryDy=0;entryPerimeter=0;" edge="1" parent="1" source="UqajKjzIm8EiFfWzJ6l2-26" target="UqajKjzIm8EiFfWzJ6l2-21">
          <mxGeometry relative="1" as="geometry" />
        </mxCell>
        <mxCell id="UqajKjzIm8EiFfWzJ6l2-26" value="ShipIdleState" style="swimlane;fontStyle=1;align=center;verticalAlign=top;childLayout=stackLayout;horizontal=1;startSize=26;horizontalStack=0;resizeParent=1;resizeParentMax=0;resizeLast=0;collapsible=1;marginBottom=0;" vertex="1" parent="1">
          <mxGeometry x="3130" y="1680" width="160" height="86" as="geometry" />
        </mxCell>
        <mxCell id="UqajKjzIm8EiFfWzJ6l2-27" value="+ field: type" style="text;strokeColor=none;fillColor=none;align=left;verticalAlign=top;spacingLeft=4;spacingRight=4;overflow=hidden;rotatable=0;points=[[0,0.5],[1,0.5]];portConstraint=eastwest;" vertex="1" parent="UqajKjzIm8EiFfWzJ6l2-26">
          <mxGeometry y="26" width="160" height="26" as="geometry" />
        </mxCell>
        <mxCell id="UqajKjzIm8EiFfWzJ6l2-28" value="" style="line;strokeWidth=1;fillColor=none;align=left;verticalAlign=middle;spacingTop=-1;spacingLeft=3;spacingRight=3;rotatable=0;labelPosition=right;points=[];portConstraint=eastwest;" vertex="1" parent="UqajKjzIm8EiFfWzJ6l2-26">
          <mxGeometry y="52" width="160" height="8" as="geometry" />
        </mxCell>
        <mxCell id="UqajKjzIm8EiFfWzJ6l2-29" value="+ method(type): type" style="text;strokeColor=none;fillColor=none;align=left;verticalAlign=top;spacingLeft=4;spacingRight=4;overflow=hidden;rotatable=0;points=[[0,0.5],[1,0.5]];portConstraint=eastwest;" vertex="1" parent="UqajKjzIm8EiFfWzJ6l2-26">
          <mxGeometry y="60" width="160" height="26" as="geometry" />
        </mxCell>
        <mxCell id="UqajKjzIm8EiFfWzJ6l2-41" style="edgeStyle=orthogonalEdgeStyle;rounded=0;orthogonalLoop=1;jettySize=auto;html=1;exitX=0.5;exitY=0;exitDx=0;exitDy=0;entryX=0.474;entryY=1.026;entryDx=0;entryDy=0;entryPerimeter=0;" edge="1" parent="1" source="UqajKjzIm8EiFfWzJ6l2-30" target="UqajKjzIm8EiFfWzJ6l2-13">
          <mxGeometry relative="1" as="geometry" />
        </mxCell>
        <mxCell id="UqajKjzIm8EiFfWzJ6l2-30" value="PirateWalkState" style="swimlane;fontStyle=1;align=center;verticalAlign=top;childLayout=stackLayout;horizontal=1;startSize=26;horizontalStack=0;resizeParent=1;resizeParentMax=0;resizeLast=0;collapsible=1;marginBottom=0;" vertex="1" parent="1">
          <mxGeometry x="2860" y="1850" width="160" height="86" as="geometry" />
        </mxCell>
        <mxCell id="UqajKjzIm8EiFfWzJ6l2-31" value="+ field: type" style="text;strokeColor=none;fillColor=none;align=left;verticalAlign=top;spacingLeft=4;spacingRight=4;overflow=hidden;rotatable=0;points=[[0,0.5],[1,0.5]];portConstraint=eastwest;" vertex="1" parent="UqajKjzIm8EiFfWzJ6l2-30">
          <mxGeometry y="26" width="160" height="26" as="geometry" />
        </mxCell>
        <mxCell id="UqajKjzIm8EiFfWzJ6l2-32" value="" style="line;strokeWidth=1;fillColor=none;align=left;verticalAlign=middle;spacingTop=-1;spacingLeft=3;spacingRight=3;rotatable=0;labelPosition=right;points=[];portConstraint=eastwest;" vertex="1" parent="UqajKjzIm8EiFfWzJ6l2-30">
          <mxGeometry y="52" width="160" height="8" as="geometry" />
        </mxCell>
        <mxCell id="UqajKjzIm8EiFfWzJ6l2-33" value="+ method(type): type" style="text;strokeColor=none;fillColor=none;align=left;verticalAlign=top;spacingLeft=4;spacingRight=4;overflow=hidden;rotatable=0;points=[[0,0.5],[1,0.5]];portConstraint=eastwest;" vertex="1" parent="UqajKjzIm8EiFfWzJ6l2-30">
          <mxGeometry y="60" width="160" height="26" as="geometry" />
        </mxCell>
        <mxCell id="UqajKjzIm8EiFfWzJ6l2-43" style="edgeStyle=orthogonalEdgeStyle;rounded=0;orthogonalLoop=1;jettySize=auto;html=1;exitX=0.5;exitY=0;exitDx=0;exitDy=0;entryX=0.484;entryY=0.994;entryDx=0;entryDy=0;entryPerimeter=0;" edge="1" parent="1" source="UqajKjzIm8EiFfWzJ6l2-34" target="UqajKjzIm8EiFfWzJ6l2-21">
          <mxGeometry relative="1" as="geometry" />
        </mxCell>
        <mxCell id="UqajKjzIm8EiFfWzJ6l2-34" value="ShipMoveState" style="swimlane;fontStyle=1;align=center;verticalAlign=top;childLayout=stackLayout;horizontal=1;startSize=26;horizontalStack=0;resizeParent=1;resizeParentMax=0;resizeLast=0;collapsible=1;marginBottom=0;" vertex="1" parent="1">
          <mxGeometry x="3690" y="1690" width="160" height="86" as="geometry" />
        </mxCell>
        <mxCell id="UqajKjzIm8EiFfWzJ6l2-35" value="+ field: type" style="text;strokeColor=none;fillColor=none;align=left;verticalAlign=top;spacingLeft=4;spacingRight=4;overflow=hidden;rotatable=0;points=[[0,0.5],[1,0.5]];portConstraint=eastwest;" vertex="1" parent="UqajKjzIm8EiFfWzJ6l2-34">
          <mxGeometry y="26" width="160" height="26" as="geometry" />
        </mxCell>
        <mxCell id="UqajKjzIm8EiFfWzJ6l2-36" value="" style="line;strokeWidth=1;fillColor=none;align=left;verticalAlign=middle;spacingTop=-1;spacingLeft=3;spacingRight=3;rotatable=0;labelPosition=right;points=[];portConstraint=eastwest;" vertex="1" parent="UqajKjzIm8EiFfWzJ6l2-34">
          <mxGeometry y="52" width="160" height="8" as="geometry" />
        </mxCell>
        <mxCell id="UqajKjzIm8EiFfWzJ6l2-37" value="+ method(type): type" style="text;strokeColor=none;fillColor=none;align=left;verticalAlign=top;spacingLeft=4;spacingRight=4;overflow=hidden;rotatable=0;points=[[0,0.5],[1,0.5]];portConstraint=eastwest;" vertex="1" parent="UqajKjzIm8EiFfWzJ6l2-34">
          <mxGeometry y="60" width="160" height="26" as="geometry" />
        </mxCell>
        <mxCell id="UqajKjzIm8EiFfWzJ6l2-38" value="" style="endArrow=block;dashed=1;endFill=0;endSize=12;html=1;rounded=0;entryX=0.5;entryY=0;entryDx=0;entryDy=0;exitX=0.5;exitY=1;exitDx=0;exitDy=0;" edge="1" parent="1" source="UqajKjzIm8EiFfWzJ6l2-5" target="UqajKjzIm8EiFfWzJ6l2-10">
          <mxGeometry width="160" relative="1" as="geometry">
            <mxPoint x="2630" y="1390" as="sourcePoint" />
            <mxPoint x="2790" y="1390" as="targetPoint" />
          </mxGeometry>
        </mxCell>
        <mxCell id="UqajKjzIm8EiFfWzJ6l2-39" value="" style="endArrow=block;dashed=1;endFill=0;endSize=12;html=1;rounded=0;entryX=0.5;entryY=0;entryDx=0;entryDy=0;exitX=0.5;exitY=1;exitDx=0;exitDy=0;" edge="1" parent="1" source="UqajKjzIm8EiFfWzJ6l2-5" target="UqajKjzIm8EiFfWzJ6l2-18">
          <mxGeometry width="160" relative="1" as="geometry">
            <mxPoint x="2900" y="1390" as="sourcePoint" />
            <mxPoint x="2795" y="1510" as="targetPoint" />
          </mxGeometry>
        </mxCell>
      </root>
    </mxGraphModel>
  </diagram>
</mxfile>
